<?xml version="1.0" encoding="utf-8"?>
<!-- Generator: Adobe Illustrator 23.0.6, SVG Export Plug-In . SVG Version: 6.00 Build 0)  -->
<svg version="1.1" id="Layer_1" xmlns="http://www.w3.org/2000/svg" xmlns:xlink="http://www.w3.org/1999/xlink" x="0px" y="0px"
	 width="24px" height="24px" viewBox="0 0 24 24" style="enable-background:new 0 0 24 24;" xml:space="preserve">
<style type="text/css">
	.st0{fill:#FFCD1C;}
</style>
<g>
	<path class="st0" d="M3.5,22c-0.5,0-1-0.1-1.5-0.4c-1.4-0.8-1.9-2.7-1.1-4.1L9.4,3.3c0,0,0,0,0,0c0.2-0.4,0.6-0.8,1-1
		c0.7-0.4,1.5-0.5,2.3-0.3c0.8,0.2,1.4,0.7,1.9,1.4L23,17.5c0.3,0.5,0.4,1,0.4,1.5c0,0.8-0.3,1.6-0.9,2.1C22,21.7,21.3,22,20.5,22
		H3.5z M11.1,4.4L2.7,18.5c-0.3,0.5-0.1,1.1,0.4,1.4C3.2,20,3.4,20,3.5,20h16.9c0.3,0,0.5-0.1,0.7-0.3c0.2-0.2,0.3-0.4,0.3-0.7
		c0-0.2,0-0.3-0.1-0.5L12.9,4.4C12.6,3.9,12,3.8,11.5,4C11.3,4.1,11.2,4.2,11.1,4.4z"/>
</g>
<g>
	<path class="st0" d="M12,14c-0.6,0-1-0.4-1-1V9c0-0.6,0.4-1,1-1s1,0.4,1,1v4C13,13.6,12.6,14,12,14z"/>
</g>
<g>
	<path class="st0" d="M12,18c-0.6,0-1-0.4-1-1s0.4-1,1-1h0c0.6,0,1,0.4,1,1S12.6,18,12,18z"/>
</g>
</svg>
