<svg width="129" height="40" viewBox="0 0 129 40" fill="none" xmlns="http://www.w3.org/2000/svg">
<g clip-path="url(#clip0)">
<path d="M16.034 23.813V7.938H8.017V0H0V23.813H16.034Z" fill="#DEDFE3"/>
<path d="M40.0811 23.813V7.938H32.0641V0H24.0471V23.813H40.0811Z" fill="#DEDFE3"/>
<path d="M50.1401 29.755H54.1181V33.693H50.1401V29.755ZM50.1401 23.835H48.1201V35.693H56.1281V27.733H50.1221L50.1401 23.835Z" fill="#DEDFE3"/>
<path d="M79.0039 29.756H82.9819V33.694H79.0039V29.756ZM85.0039 27.756H76.9839V35.672H82.9839V37.68H76.9839V39.68H85.0009L85.0039 27.756Z" fill="#DEDFE3"/>
<path d="M68.5961 33.672H64.6191V27.734H62.5991V35.672H70.6161V27.734H68.5961V33.672Z" fill="#DEDFE3"/>
<path d="M93.425 29.755H97.403V33.693H93.425V29.755ZM93.425 23.835H91.405V35.693H99.44V27.733H93.407L93.425 23.835Z" fill="#DEDFE3"/>
<path d="M122.303 29.756H126.281V33.694H122.303V29.756ZM128.303 27.756H120.283V35.672H126.283V37.68H120.283V39.68H128.3L128.303 27.756Z" fill="#DEDFE3"/>
<path d="M111.804 33.672H107.824V27.734H105.804V35.672H113.821V27.734H111.804V33.672Z" fill="#DEDFE3"/>
<path d="M32.068 27.786V31.75H8.017V27.782H0V35.72H8.017V39.68H32.073V35.715H40.081V27.786H32.068Z" fill="#DEDFE3"/>
</g>
<defs>
<clipPath id="clip0">
<rect width="128.3" height="39.68" fill="white"/>
</clipPath>
</defs>
</svg>
